<svg width="26" height="26" viewBox="0 0 26 26" fill="none" xmlns="http://www.w3.org/2000/svg">
<g clip-path="url(#clip0_93803_52)">
<mask id="mask0_93803_52" style="mask-type:luminance" maskUnits="userSpaceOnUse" x="0" y="0" width="26" height="26">
<path d="M26 0H0V26H26V0Z" fill="white"/>
</mask>
<g mask="url(#mask0_93803_52)">
<path fill-rule="evenodd" clip-rule="evenodd" d="M1.51857 14.3558C-0.541561 13.5745 -0.470507 11.3723 1.51857 10.5909C8.66973 7.53621 23.0289 1.42692 23.2562 1.42692C24.8191 0.858611 26.1688 1.99522 25.9557 3.6291L22.1196 23.0225C21.5513 24.6564 19.5622 24.9405 18.5677 24.2302L13.8082 20.6782L11.1797 23.0935C10.1852 24.017 8.83548 23.6618 8.40925 22.3121L6.34915 15.9897L1.51857 14.3558ZM10.2562 21.1755L10.8956 16.558L20.6988 7.39414C20.983 7.03894 20.4857 6.61271 20.1305 6.89688L8.05406 14.4269L2.371 12.5089L23.8956 3.41599L20.2016 22.17C20.0511 22.7348 19.8771 22.7724 19.4201 22.3832L13.7371 18.0498L10.2562 21.1755Z" fill="white" fill-opacity="0.6"/>
</g>
</g>
<defs>
<clipPath id="clip0_93803_52">
<rect width="26" height="26" fill="white"/>
</clipPath>
</defs>
</svg>
